<?xml version="1.0" encoding="utf-8"?>
<!-- Generator: Adobe Illustrator 22.1.0, SVG Export Plug-In . SVG Version: 6.00 Build 0)  -->
<svg version="1.1" id="Laag_1" xmlns="http://www.w3.org/2000/svg" xmlns:xlink="http://www.w3.org/1999/xlink" x="0px" y="0px"
	 viewBox="0 0 1190.6 336.3" style="enable-background:new 0 0 1190.6 336.3;" xml:space="preserve">
<style type="text/css">
	.st0{fill:#59B572;}
</style>
<g>
	<g>
		<path class="st0" d="M201.6,222.6v-44c-13,20.1-44.8,31-67.8,31c-59,0-121-24.7-121-97.6C12.8,47.2,75.2,15,134.2,15
			c59.9,0,122.3,32.2,122.3,98v109.3c0,65.3-60.3,95.9-120.6,95.9c-63.6,0-121.8-25.1-121.8-86.7h55.3c0,26,34.3,38.9,65.7,38.9
			c33.1,0.4,66.6-17.6,66.6-49.4V222.6z M67.7,112.1c0,32.2,29.3,49.4,66.2,49.4c36.8,0,68.2-16.7,67.8-49.4
			c-0.4-32.2-31.4-47.7-67.4-47.7C99.5,64.4,67.7,79.9,67.7,112.1z"/>
		<path class="st0" d="M484.2,222.6v-44c-13,20.1-44.8,31-67.8,31c-59,0-121-24.7-121-97.6c0-64.9,62.4-97.1,121.4-97.1
			c59.9,0,122.3,32.2,122.3,98v109.3c0,65.3-60.3,95.9-120.6,95.9c-63.6,0-121.8-25.1-121.8-86.7h55.3c0,26,34.3,38.9,65.7,38.9
			c33.1,0.4,66.6-17.6,66.6-49.4V222.6z M350.2,112.1c0,32.2,29.3,49.4,66.2,49.4s68.2-16.7,67.8-49.4
			c-0.4-32.2-31.4-47.7-67.4-47.7C382.1,64.4,350.2,79.9,350.2,112.1z"/>
	</g>
	<g>
		<path class="st0" d="M698.9,145.5H677l-28.5-32.7h-17.7v32.7h-18.4V47.6c15.5,0,31,0.1,46.5,0.1c23,0.1,35.2,15.5,35.2,32.4
			c0,13.4-6.1,26.9-24.7,30.7l29.6,33.4V145.5z M630.8,65v31.3h28.1c11.7,0,16.7-7.8,16.7-15.6c0-7.8-5.2-15.6-16.7-15.6H630.8z"/>
		<path class="st0" d="M719.7,117.1c1.1,8.5,8.5,14.7,20.5,14.7c6.3,0,14.5-2.4,18.4-6.4l10.9,10.7c-7.3,7.5-19.1,11.2-29.6,11.2
			c-23.7,0-37.8-14.7-37.8-36.7c0-20.9,14.2-36,36.6-36c23,0,37.4,14.2,34.8,42.6H719.7z M757.1,103.1c-1.1-8.9-8.1-13.4-17.9-13.4
			c-9.2,0-16.7,4.5-19.3,13.4H757.1z"/>
		<path class="st0" d="M805.1,57.3c0,13.3-20.1,13.3-20.1,0S805.1,44,805.1,57.3z M786.5,76.4v69.1h17V76.4H786.5z"/>
		<path class="st0" d="M863.8,95c-4.9-4.6-10.5-6.1-17-6.1c-8.1,0-12.6,2.5-12.6,6.8c0,4.5,4,7,12.8,7.5c13,0.8,29.4,3.8,29.4,22
			c0,12.1-9.9,22.6-29.6,22.6c-10.9,0-21.8-1.8-31.8-12.3l8.4-12.1c4.9,5.4,16,9.5,23.7,9.6c6.4,0.1,12.4-3.2,12.4-8.2
			c0-4.7-3.9-6.7-13.7-7.3c-13-1-28.5-5.7-28.5-21.4c0-15.9,16.5-21.5,29-21.5c10.7,0,18.8,2.1,26.8,9.1L863.8,95z"/>
		<path class="st0" d="M682.3,210.3L653,279.5h-18.4l-29.4-69.2h18.6l9.5,22.7l10.6,29l10.5-28.7l9.5-23H682.3z"/>
		<path class="st0" d="M705,250.9c1.1,8.5,8.5,14.7,20.5,14.7c6.3,0,14.5-2.4,18.4-6.4l10.9,10.7c-7.3,7.5-19.1,11.2-29.6,11.2
			c-23.7,0-37.8-14.7-37.8-36.7c0-20.9,14.2-36,36.6-36c23,0,37.4,14.2,34.8,42.6H705z M742.4,236.8c-1.1-8.9-8.1-13.4-17.9-13.4
			c-9.2,0-16.7,4.5-19.3,13.4H742.4z"/>
		<path class="st0" d="M787.6,210.4l1.3,8c5.3-8.5,12.4-9.8,19.4-9.8c7.1,0,14,2.8,17.7,6.6l-7.7,14.8c-3.5-2.9-6.7-4.5-12.3-4.5
			c-8.9,0-17.2,4.7-17.2,17.4v36.3h-17v-68.8H787.6z"/>
		<path class="st0" d="M849.5,181.5v38.2c6.1-8,13.7-10.3,21.5-10.3c19.5,0,28.2,13.3,28.2,33.5v36.3h-17v-36.1
			c0-12.6-6.6-17.9-15.6-17.9c-10.1,0-17,8.5-17,18.8v35.2h-17v-97.7H849.5z"/>
		<path class="st0" d="M968.1,210.4h16.3v68.8h-16.1l-0.8-10c-3.9,8.1-14.7,12-22.3,12.1c-20.4,0.1-35.4-12.4-35.4-36.6
			c0-23.7,15.8-36.1,35.9-36c9.2,0,18,4.3,21.9,11.2L968.1,210.4z M926.8,244.7c0,13.1,9.1,20.9,20.4,20.9c26.8,0,26.8-41.7,0-41.7
			C935.8,223.9,926.8,231.6,926.8,244.7z"/>
		<path class="st0" d="M1015.6,181.7v97.6h-16.9v-97.6H1015.6z"/>
		<path class="st0" d="M1045.1,250.9c1.1,8.5,8.5,14.7,20.5,14.7c6.3,0,14.5-2.4,18.4-6.4l10.9,10.7c-7.3,7.5-19.1,11.2-29.6,11.2
			c-23.7,0-37.8-14.7-37.8-36.7c0-20.9,14.2-36,36.6-36c23,0,37.4,14.2,34.8,42.6H1045.1z M1082.5,236.8
			c-1.1-8.9-8.1-13.4-17.9-13.4c-9.2,0-16.7,4.5-19.3,13.4H1082.5z"/>
		<path class="st0" d="M1162.6,279.2v-36c0-10.5-5.7-18.4-16.6-18.4c-10.5,0-17.6,8.8-17.6,19.3v35.2h-16.9v-68.9h15.2l1.1,9.3
			c7-6.8,14-10.3,22.6-10.3c16.2,0,29.2,12.1,29.2,33.8v36.1H1162.6z"/>
	</g>
</g>
</svg>
