<?xml version="1.0" encoding="utf-8"?>
<!-- Generator: Adobe Illustrator 22.0.1, SVG Export Plug-In . SVG Version: 6.00 Build 0)  -->
<svg version="1.1" id="Laag_1" xmlns="http://www.w3.org/2000/svg" xmlns:xlink="http://www.w3.org/1999/xlink" x="0px" y="0px"
	 viewBox="0 0 33.6 34.1" style="enable-background:new 0 0 33.6 34.1;" xml:space="preserve">
<style type="text/css">
	.st0{fill:#E83869;}
	.st1{fill:#FFFFFF;}
</style>
<path class="st0" d="M17.6,7.2L16.7,8l-0.8-0.8c-3.5-3.5-9.2-3.5-12.7,0c-3.4,3.4-3.5,8.9-0.1,12.7c3.1,3.5,12.3,10.9,12.6,11.2
	c0.3,0.2,0.6,0.3,0.9,0.3l0,0c0.3,0,0.6-0.1,0.9-0.3c0.4-0.3,9.5-7.8,12.6-11.2c3.4-3.8,3.4-9.2-0.1-12.7
	C26.8,3.7,21.1,3.7,17.6,7.2z"/>
<g>
	<path class="st1" d="M18.2,11.9v10.9h-3v-7.1c-0.5,0.4-1,0.7-1.4,0.9c-0.5,0.2-1,0.4-1.7,0.7v-2.4c1-0.3,1.8-0.7,2.4-1.2
		c0.6-0.5,1-1,1.3-1.7H18.2z"/>
</g>
</svg>
