<?xml version="1.0" encoding="utf-8"?>
<!-- Generator: Adobe Illustrator 22.1.0, SVG Export Plug-In . SVG Version: 6.00 Build 0)  -->
<svg version="1.1" id="Laag_1" xmlns="http://www.w3.org/2000/svg" xmlns:xlink="http://www.w3.org/1999/xlink" x="0px" y="0px"
	 viewBox="0 0 54.3 55.2" style="enable-background:new 0 0 54.3 55.2;" xml:space="preserve">
<style type="text/css">
	.st0{fill:#B4B4B4;}
</style>
<g>
</g>
<path class="st0" d="M28.4,11.4l-1.3,1.3l-1.3-1.3c-5.6-5.6-14.6-5.6-20.1,0c-5.4,5.4-5.5,14.1-0.1,20.1c4.9,5.5,19.4,17.3,20,17.8
	c0.4,0.3,0.9,0.5,1.4,0.5c0,0,0,0,0,0c0.5,0,1-0.2,1.5-0.5c0.6-0.5,15.1-12.3,20-17.8c5.4-6,5.4-14.6-0.1-20.1
	C43,5.9,34,5.9,28.4,11.4z"/>
</svg>
