<?xml version="1.0" encoding="utf-8"?>
<!-- Generator: Adobe Illustrator 22.1.0, SVG Export Plug-In . SVG Version: 6.00 Build 0)  -->
<svg version="1.1" id="Laag_1" xmlns="http://www.w3.org/2000/svg" xmlns:xlink="http://www.w3.org/1999/xlink" x="0px" y="0px"
	 viewBox="0 0 1648.1 336.3" style="enable-background:new 0 0 1648.1 336.3;" xml:space="preserve">
<style type="text/css">
	.st0{fill:#5AB572;}
</style>
<g>
	<path class="st0" d="M303.3,169.4c0.6,76-58.1,144.6-144,144.7c-85,0.2-144.8-67.7-144.6-144.9C14.9,92.8,74,25.2,158.9,25.1
		C244.9,25,303.7,93.6,303.3,169.4z M142.2,176.1C142.2,176.1,142.2,176.1,142.2,176.1c-0.1-7.2-0.1-14.4-0.1-21.6
		c0-8.5,0-8.5,8.2-8.5c12.7,0,25.5,0.1,38.2,0c10.1-0.1,14.7-4.8,14.7-14.9c0.1-10.5-4.5-15.2-15-15.3c-4.7-0.1-9.4-0.4-14,0.1
		c-6.7,0.7-8.5-2.1-8.1-8.3c0.4-6.1,0.4-12.3-0.1-18.4c-0.7-9.2-5.9-12.8-17.1-12.6c-10.2,0.1-15,3.8-15.3,12.9
		c-0.5,13.6-0.7,27.1-0.3,40.7c0.1,5-1.1,6.2-5.8,6.2c-14.2-0.2-28.4-0.2-42.7,0c-8.7,0.1-13.1,5.6-12.9,15.4
		c0.2,9.5,4.4,14.5,12.9,14.8c4.7,0.2,9.3,0.1,14,0.1c10.5,0,10.5,0,10.5,10.2c0,8.5-0.3,17,0.2,25.5c0.8,15.8,6.2,29.9,17.7,41.1
		c16.5,16,36.6,19.6,58.4,16c26.2-4.3,47.2-27.3,49.5-53.7c0.4-4.7,0.5-9.4-3.8-12.8c-10.6-8.1-27.3-2-30,11
		c-3.7,17.9-15.2,26.2-34.2,24.5c-14.1-1.2-24.6-13.6-25.1-29.7C142,190.9,142.2,183.5,142.2,176.1z"/>
	<path class="st0" d="M1207.6,226.6c-15.3,20.5-35.3,23.3-56.5,21.4c-16.8-1.5-31.5-8.2-43.1-20.8c-23.7-25.7-23.3-75.4,1.1-100.7
		c13.4-13.9,30.5-19.7,49.4-20.2c20.8-0.6,27.3,2.4,49.4,20.8c0.8-4.7,1.8-8.9,2.1-13.2c0.3-4.2,2.3-5.3,6.2-5.2
		c6.1,0.2,12.3,0.2,18.5,0c3.7-0.1,5.4,1,5.4,5c-0.1,42.2-0.1,84.5,0,126.7c0,4-1.7,5.2-5.4,5.1c-5.9-0.1-11.9-0.2-17.8,0
		c-4.4,0.2-6.7-1.1-6.9-5.9C1209.6,236.3,1208.6,232.6,1207.6,226.6z M1166,134.7c-25.6-0.1-42,16.4-42.1,42.2
		c-0.1,26,16.4,43.6,40.9,43.9c24.5,0.3,41.9-17.3,42.4-42.7C1207.6,152.6,1190.7,134.8,1166,134.7z"/>
	<path class="st0" d="M1603.7,126.7c0.6-4.4,1.2-8.3,1.5-12.3c0.3-3.5,1.5-5.6,5.4-5.5c6.6,0.1,13.2,0.1,19.7,0
		c3.7-0.1,4.7,1.9,4.7,5.2c0,42.3,0,84.5,0,126.8c0,3.5-1.5,5-5,4.9c-6.4-0.1-12.7-0.1-19.1,0c-4.1,0.1-5.6-1.9-5.8-5.8
		c-0.2-3.9-1-7.8-1.6-12.1c-1.4,0.7-2.1,0.8-2.4,1.3c-18.2,22.3-42.2,22.4-66.9,16.4c-24.5-6.1-40-22.6-45.6-47.3
		c-4.2-18.2-3.6-36.4,4.1-53.6c11.4-25.5,32.8-36.4,59.4-38c19.3-1.2,36.7,3.4,49.3,19.6C1601.7,126.4,1602.3,126.3,1603.7,126.7z
		 M1561.4,134.7c-25.4,0-42,16.7-42.2,42.4c-0.2,25.7,17.2,43.8,42,43.7c24.5-0.1,41.4-17.8,41.4-43.5
		C1602.6,151.7,1586.3,134.7,1561.4,134.7z"/>
	<path class="st0" d="M725.8,226.7c-22.2,31.9-78.9,25.6-100,0.6c-9.4-11.1-14.9-23.7-16.4-37.9c-2.6-24.2,1.1-46.7,19.4-64.6
		c18.5-18.1,53.5-24.4,76.6-13.1c7.2,3.5,13.3,9.3,20.5,14.6c0.4-3.2,1-6.8,1.4-10.4c0.4-4.7,2-7.4,7.5-7c5.5,0.5,11,0.2,16.5,0.1
		c3.9-0.1,5.8,1.1,5.8,5.4c-0.1,42-0.1,84.1,0,126.1c0,4.2-1.9,5.6-5.8,5.4c-5.7-0.2-11.5-0.3-17.2,0c-4.8,0.3-6.4-2.2-6.8-6.3
		C727,235.8,726.4,232.1,725.8,226.7z M683.6,134.7c-25.3,0-41.7,16.6-41.9,42.5c-0.2,25.7,16.5,43.3,41.2,43.6
		c24.5,0.3,41.7-17.4,41.8-43C724.7,151.5,708.8,134.7,683.6,134.7z"/>
	<path class="st0" d="M824.4,127.1c11.1-14.7,26.2-20.6,43.9-20.7c33.8-0.2,56.9,21.5,57.9,55.4c0.8,26.1,0.1,52.2,0.3,78.4
		c0,4.1-1.4,5.8-5.6,5.6c-6.8-0.2-13.6-0.3-20.4,0c-5.1,0.2-6.6-1.7-6.6-6.6c0.2-21.7,0.2-43.3,0-65c0-5-0.6-10.2-1.9-15.1
		c-4.4-16-19.1-25.8-35.3-23.9c-18.8,2.2-31.6,14.3-32.2,31.8c-0.8,22.9-0.7,45.8-0.9,68.8c-0.1,10,0,10-10.3,10
		c-4.2,0-8.5,0-12.7,0c-8.9,0-8.9,0-8.9-8.7c0-36.1,0-72.2,0-108.3c0-4.5,0.2-8.9,0-13.4c-0.2-4.5,1.3-6.7,6.2-6.5
		c5.7,0.3,11.5,0.3,17.2,0c4.1-0.2,5.8,1.4,6.1,5.4c0.3,4.1,1.1,8.2,1.7,12.3C823.4,126.7,823.9,126.9,824.4,127.1z"/>
	<path class="st0" d="M1066.5,123.5c-4.9,6.3-9.4,12.7-14.5,18.6c-0.8,0.9-4.6,0.1-6.4-1c-13.7-8.4-28.4-10.6-44.1-7.6
		c-1.9,0.4-3.7,0.9-5.5,1.6c-5.3,2.1-9.2,5.4-9.6,11.5c-0.4,6.5,3.5,10.8,9.1,12.4c9.3,2.6,19.1,3.8,28.6,5.9
		c8.5,1.9,17.1,3.4,25.2,6.5c14.9,5.7,23.8,16.3,24,33.2c0.2,17.8-8,30-23.7,37.3c-16.8,7.8-34.7,7.4-52.5,5.5
		c-16.1-1.7-30.9-7.1-43.6-17.7c-4.1-3.4-4.8-6.2-1.1-10.4c4.2-4.7,7.8-10,12-15.6c1.9,1.4,3.5,2.6,5.1,3.8
		c16.9,11.8,35.4,16.9,56,13.4c1.7-0.3,3.3-0.8,4.9-1.4c5.5-2.1,9.8-5.6,10-11.9c0.2-6.3-3.6-10.7-9.3-12.3
		c-9.2-2.5-18.7-3.6-27.9-5.9c-10.2-2.5-20.7-4.7-30.4-8.8c-25.8-11-25.2-50.2-2.7-63.5c17.2-10.3,36-11.9,55.3-10.4
		c13.8,1.1,26.6,5.4,37.8,13.7C1064.2,121.2,1065,122.2,1066.5,123.5z"/>
	<path class="st0" d="M1258.3,109c11.9,0,22.2-0.3,32.6,0.3c2,0.1,4.5,3.4,5.5,5.8c11.6,28.7,23,57.5,34.4,86.3
		c1.1,2.8,2.5,5.6,4.4,9.7c1.7-3.7,2.8-5.9,3.7-8.2c11.7-29.4,23.4-58.7,34.9-88.2c1.6-4.2,3.7-6,8.3-5.8c8.7,0.4,17.3,0.1,27.1,0.1
		c-0.8,2.7-1.3,4.7-2,6.4c-17.5,41-35.1,81.9-52.4,123c-2.3,5.4-5,8.1-11.2,7.5c-6.5-0.6-13.2-0.5-19.7,0c-5.5,0.4-8.3-1.7-10.4-6.8
		c-16.5-39.3-33.4-78.5-50.1-117.7C1261.8,117.7,1260.3,114,1258.3,109z"/>
	<path class="st0" d="M440,69.7c0,8.8,0,17,0,25.2c0,16.7-0.8,13.7,13.9,14c6.2,0.1,12.3,0.2,18.5,0c4-0.1,6,1.2,5.8,5.4
		c-0.2,5.9-0.1,11.9,0,17.8c0.1,3.8-1.6,5.3-5.4,5.2c-8.9-0.1-17.8,0.1-26.7-0.1c-3.9-0.1-6.1,1.2-6,5.3c0.2,19.5-0.1,39,0.9,58.5
		c0.7,13.3,9.6,19.3,22.8,17c3.5-0.6,7-1.6,11.3-2.7c2.6,7.6,5.3,15.1,7.5,22.8c0.3,1.2-1.5,4.1-3,4.6c-18.8,6.7-37.5,7.6-54.9-3.7
		c-10.5-6.8-15.3-17.7-15.9-29.8c-0.9-19.3-0.9-38.6-1.3-57.9c0-2.5-0.2-5.1,0-7.6c0.5-5.2-1.9-6.7-6.7-6.4c-4.7,0.3-9.3-0.1-14,0.1
		c-3.6,0.1-5-1.4-4.9-4.9c0.1-6.1,0.2-12.3,0-18.5c-0.1-4,1.8-5.1,5.4-5c4.7,0.2,9.3-0.2,14,0.1c4.8,0.3,6.3-1.8,6.2-6.4
		c-0.2-8.1,0.1-16.1-0.1-24.2c-0.1-3.7,1.3-5.5,5-5.9C421.1,71.7,430,70.7,440,69.7z"/>
	<path class="st0" d="M594.8,142.7c-7.4-2.4-13.7-5.6-20.2-6.4c-23.5-2.6-37.4,10.1-37.9,34.3c-0.4,18,0,36.1-0.2,54.1
		c-0.1,6.7,1.7,15.9-1.8,19.4c-3.6,3.5-12.8,1.4-19.5,1.6c-1.9,0.1-3.8-0.1-5.7,0c-3.7,0.2-5.4-1.2-5.4-5.2
		c0.1-42.2,0.1-84.5,0-126.7c0-3.5,1.2-5.1,4.8-5c6.2,0.1,12.3,0.2,18.5,0c3.9-0.1,5.2,1.5,5.5,5.2c0.3,4.1,1.2,8.2,1.9,13.2
		c1.6-1.3,2.8-1.9,3.4-2.8c13-19.2,43.6-24.2,65.2-10.1c3.9,2.6,5.1,4.9,2.3,9.2C601.7,129.9,598.3,136.5,594.8,142.7z"/>
	<path class="st0" d="M1428.2,177.3c0-20.6,0.1-41.2-0.1-61.8c0-4.9,1.2-7,6.4-6.7c6.8,0.4,13.6,0.2,20.4,0c4-0.1,5.8,1.2,5.8,5.4
		c-0.1,42-0.1,84.1,0,126.1c0,4.3-2,5.5-5.9,5.4c-7-0.2-14-0.2-21,0c-4.6,0.2-5.7-1.9-5.7-6.1
		C1428.3,218.9,1428.2,198.1,1428.2,177.3z"/>
	<path class="st0" d="M1444.6,94.2c-11.7,0-19.2-7.6-19.1-19.1c0.1-11,8-18.6,19.2-18.5c11.6,0.1,19.5,7.8,19.5,19
		C1464.2,86.8,1456.4,94.3,1444.6,94.2z"/>
</g>
</svg>
