<?xml version="1.0" encoding="utf-8"?>
<!-- Generator: Adobe Illustrator 22.1.0, SVG Export Plug-In . SVG Version: 6.00 Build 0)  -->
<svg version="1.1" id="Laag_1" xmlns="http://www.w3.org/2000/svg" xmlns:xlink="http://www.w3.org/1999/xlink" x="0px" y="0px"
	 viewBox="0 0 54.3 55.2" style="enable-background:new 0 0 54.3 55.2;" xml:space="preserve">
<style type="text/css">
	.st0{fill:#59B572;}
</style>
<g>
</g>
<g id="XMLID_108_">
	<path class="st0" d="M53.7,27.3c0-14.7-11.6-26.4-26.3-26.4C12.7,0.9,1.1,12.6,1.1,27.3c0,14.7,11.6,26.4,26.3,26.4
		C42.1,53.7,53.7,42,53.7,27.3L53.7,27.3L53.7,27.3z M41.1,33.4c-0.8,6.1-5,10.2-11.4,10.2c-6.9,0-11.3-4.8-11.3-11.6v-5.4h-4.4
		c-1.5,0-2.3-0.8-2.3-2.3v-0.7c0-1.5,0.8-2.3,2.3-2.3h7.8c0.4,0,0.8,0.1,1.1,0.2c-0.1-0.3-0.1-0.6-0.1-0.9v-7.8
		c0-1.5,0.8-2.3,2.3-2.3h1.1c1.5,0,2.3,0.8,2.3,2.3v4.8h4.4c1.5,0,2.3,0.8,2.3,2.3v0.7c0,1.5-0.8,2.3-2.3,2.3h-7.8
		c-0.4,0-0.8-0.1-1.1-0.2c0.1,0.3,0.1,0.6,0.1,0.9v8.5c0,3.6,2.2,6.1,5.5,6.1c2.9,0,5.1-1.9,5.5-4.7c0.2-1.5,0.8-2.3,2.3-2.3H39l0,0
		C40.3,31.1,41.3,31.9,41.1,33.4z"/>
</g>
</svg>
