<?xml version="1.0" encoding="utf-8"?>
<!-- Generator: Adobe Illustrator 22.1.0, SVG Export Plug-In . SVG Version: 6.00 Build 0)  -->
<svg version="1.1" id="Laag_1" xmlns="http://www.w3.org/2000/svg" xmlns:xlink="http://www.w3.org/1999/xlink" x="0px" y="0px"
	 viewBox="0 0 54.3 55.2" style="enable-background:new 0 0 54.3 55.2;" xml:space="preserve">
<style type="text/css">
	.st0{fill:#59B572;}
	.st1{fill:#FFFFFF;}
</style>
<g>
</g>
<g>
	<circle class="st0" cx="27.6" cy="27.7" r="26.3"/>
	<g>
		<path class="st1" d="M28.3,9.1c-0.7-0.2-1.4-0.2-2,0c-2.3,0.6-7.9,2.8-7.9,10.3c0,9.6,7.1,13,8.9,13c1.8,0,8.9-3.4,8.9-13
			C36.2,11.9,30.6,9.7,28.3,9.1z"/>
		<path class="st1" d="M46.4,40.4c-1.1-6.7-12.6-6.3-12.6-6.3l-6.3,6.3l-6.3-6.3c0,0-11.4-0.4-12.6,6.3l-1.1,5.9h19.9h19.9
			L46.4,40.4z"/>
	</g>
	<g>
		<path class="st0" d="M27.5,5c12.3,0,22.3,10,22.3,22.3s-10,22.3-22.3,22.3S5.2,39.6,5.2,27.3S15.2,5,27.5,5 M27.5,1
			C13,1,1.2,12.8,1.2,27.3S13,53.7,27.5,53.7c14.5,0,26.3-11.8,26.3-26.3S42,1,27.5,1L27.5,1z"/>
	</g>
</g>
</svg>
