<?xml version="1.0" encoding="utf-8"?>
<!-- Generator: Adobe Illustrator 22.1.0, SVG Export Plug-In . SVG Version: 6.00 Build 0)  -->
<svg version="1.1" id="Laag_1" xmlns="http://www.w3.org/2000/svg" xmlns:xlink="http://www.w3.org/1999/xlink" x="0px" y="0px"
	 viewBox="0 0 54.3 55.2" style="enable-background:new 0 0 54.3 55.2;" xml:space="preserve">
<style type="text/css">
	.st0{fill:#FA3168;}
</style>
<g>
	<g>
		<g>
			<path class="st0" d="M41.9,32.6c0-0.9-0.3-1.6-0.9-2.3L23.3,12.6c-0.6-0.6-1.5-1.2-2.5-1.6c-1.1-0.4-2-0.7-2.9-0.7H7.5
				c-0.9,0-1.6,0.3-2.2,0.9c-0.6,0.6-0.9,1.4-0.9,2.2v10.3c0,0.9,0.2,1.8,0.7,2.9c0.4,1.1,1,1.9,1.6,2.5L24.3,47
				c0.6,0.6,1.4,0.9,2.2,0.9c0.9,0,1.6-0.3,2.3-0.9L41,34.8C41.6,34.2,41.9,33.4,41.9,32.6z M14.5,20.5c-0.6,0.6-1.4,0.9-2.2,0.9
				c-0.9,0-1.6-0.3-2.2-0.9c-0.6-0.6-0.9-1.4-0.9-2.2c0-0.9,0.3-1.6,0.9-2.2c0.6-0.6,1.4-0.9,2.2-0.9c0.9,0,1.6,0.3,2.2,0.9
				c0.6,0.6,0.9,1.4,0.9,2.2C15.4,19.1,15.1,19.9,14.5,20.5z"/>
			<path class="st0" d="M50.5,30.3L32.8,12.6c-0.6-0.6-1.5-1.2-2.5-1.6c-1.1-0.4-2-0.7-2.9-0.7h-5.6c0.9,0,1.8,0.2,2.9,0.7
				c1.1,0.4,1.9,1,2.5,1.6L45,30.3c0.6,0.6,0.9,1.4,0.9,2.3c0,0.9-0.3,1.6-0.9,2.2L33.3,46.4c0.5,0.5,0.9,0.9,1.3,1.1
				c0.4,0.2,0.9,0.3,1.5,0.3c0.9,0,1.6-0.3,2.3-0.9l12.2-12.2c0.6-0.6,0.9-1.4,0.9-2.2C51.4,31.7,51.1,30.9,50.5,30.3z"/>
		</g>
	</g>
</g>
</svg>
